<svg width="22" height="22" viewBox="0 0 22 22" fill="none" xmlns="http://www.w3.org/2000/svg">
<rect x="0.214355" y="0.428589" width="21.4286" height="21.4286" rx="6" fill="white"/>
<path d="M15.4425 8.03927C15.5293 8.11645 15.5818 8.2249 15.5886 8.3408C15.5954 8.45669 15.556 8.57056 15.4789 8.65737L10.8066 13.914C10.7655 13.9603 10.7151 13.9973 10.6586 14.0227C10.6022 14.048 10.541 14.0611 10.4792 14.0611C10.4173 14.0611 10.3561 14.048 10.2997 14.0227C10.2432 13.9973 10.1928 13.9603 10.1517 13.914L7.81555 11.2857C7.74289 11.1983 7.70705 11.0861 7.7156 10.9727C7.72415 10.8594 7.77643 10.7538 7.86138 10.6783C7.94634 10.6027 8.05733 10.5632 8.1709 10.568C8.28446 10.5728 8.39172 10.6216 8.47001 10.704L10.4789 12.9639L14.8244 8.07519C14.9017 7.98853 15.0102 7.93606 15.1261 7.92933C15.242 7.92259 15.3558 7.96214 15.4425 8.03927Z" fill="#0D0D0D"/>
</svg>
