<svg width="41" height="16" viewBox="0 0 41 16" fill="none" xmlns="http://www.w3.org/2000/svg">
<path d="M17.4662 3.636V4.524H13.8302V7.344H16.7822V8.232H13.8302V12H12.7382V3.636H17.4662ZM19.3491 4.356C19.1411 4.356 18.9651 4.284 18.8211 4.14C18.6771 3.996 18.6051 3.82 18.6051 3.612C18.6051 3.404 18.6771 3.228 18.8211 3.084C18.9651 2.94 19.1411 2.868 19.3491 2.868C19.5491 2.868 19.7171 2.94 19.8531 3.084C19.9971 3.228 20.0691 3.404 20.0691 3.612C20.0691 3.82 19.9971 3.996 19.8531 4.14C19.7171 4.284 19.5491 4.356 19.3491 4.356ZM19.8771 5.424V12H18.7851V5.424H19.8771ZM22.8302 3.12V12H21.7382V3.12H22.8302ZM26.0233 6.324V10.2C26.0233 10.52 26.0913 10.748 26.2273 10.884C26.3633 11.012 26.5993 11.076 26.9353 11.076H27.7393V12H26.7553C26.1473 12 25.6913 11.86 25.3873 11.58C25.0833 11.3 24.9313 10.84 24.9313 10.2V6.324H24.0793V5.424H24.9313V3.768H26.0233V5.424H27.7393V6.324H26.0233ZM35.0624 8.46C35.0624 8.668 35.0504 8.888 35.0264 9.12H29.7704C29.8104 9.768 30.0304 10.276 30.4304 10.644C30.8384 11.004 31.3304 11.184 31.9064 11.184C32.3784 11.184 32.7704 11.076 33.0824 10.86C33.4024 10.636 33.6264 10.34 33.7544 9.972H34.9304C34.7544 10.604 34.4024 11.12 33.8744 11.52C33.3464 11.912 32.6904 12.108 31.9064 12.108C31.2824 12.108 30.7224 11.968 30.2264 11.688C29.7384 11.408 29.3544 11.012 29.0744 10.5C28.7944 9.98 28.6544 9.38 28.6544 8.7C28.6544 8.02 28.7904 7.424 29.0624 6.912C29.3344 6.4 29.7144 6.008 30.2024 5.736C30.6984 5.456 31.2664 5.316 31.9064 5.316C32.5304 5.316 33.0824 5.452 33.5624 5.724C34.0424 5.996 34.4104 6.372 34.6664 6.852C34.9304 7.324 35.0624 7.86 35.0624 8.46ZM33.9344 8.232C33.9344 7.816 33.8424 7.46 33.6584 7.164C33.4744 6.86 33.2224 6.632 32.9024 6.48C32.5904 6.32 32.2424 6.24 31.8584 6.24C31.3064 6.24 30.8344 6.416 30.4424 6.768C30.0584 7.12 29.8384 7.608 29.7824 8.232H33.9344ZM37.5958 6.492C37.7878 6.116 38.0598 5.824 38.4118 5.616C38.7718 5.408 39.2078 5.304 39.7198 5.304V6.432H39.4318C38.2078 6.432 37.5958 7.096 37.5958 8.424V12H36.5038V5.424H37.5958V6.492Z" fill="#002469"/>
<path d="M6.96159 12.9581L6.96159 10.079C6.96159 9.87773 7.12155 9.71777 7.32278 9.71777C7.52401 9.71777 7.68396 9.87773 7.68396 10.079L7.68396 12.9581C7.68396 13.1593 7.52401 13.3193 7.32278 13.3193C7.12154 13.3193 6.96159 13.1593 6.96159 12.9581Z" fill="#002469"/>
<path d="M6.96159 5.28062L6.96159 3.36118C6.96159 3.15995 7.12155 3 7.32278 3C7.52401 3 7.68396 3.15995 7.68396 3.36118L7.68396 5.28062C7.68396 5.48185 7.52401 5.6418 7.32278 5.6418C7.12155 5.6418 6.96159 5.47669 6.96159 5.28062Z" fill="#002469"/>
<path d="M5.28474 7.19975C5.28474 8.32536 6.19724 9.23786 7.32285 9.23786C8.44847 9.23786 9.36096 8.32536 9.36096 7.19975C9.36096 6.07412 8.44847 5.16162 7.32285 5.16162C6.19724 5.16162 5.28474 6.07412 5.28474 7.19975Z" fill="#002469"/>
<path d="M1.68291 12.9588L1.68291 11.0394C1.68291 10.8382 1.84286 10.6782 2.04409 10.6782C2.24532 10.6782 2.40527 10.8382 2.40527 11.0394L2.40527 12.9588C2.40527 13.1601 2.24532 13.32 2.04409 13.32C1.84286 13.32 1.68291 13.1601 1.68291 12.9588Z" fill="#002469"/>
<path d="M1.68291 6.24033L1.68291 3.36118C1.68291 3.15995 1.84286 3 2.04409 3C2.24532 3 2.40527 3.15995 2.40527 3.36118L2.40527 6.24033C2.40527 6.44157 2.24532 6.60152 2.04409 6.60152C1.84286 6.60152 1.68291 6.43641 1.68291 6.24033Z" fill="#002469"/>
<path d="M-4.46315e-05 9.11955C-4.46807e-05 10.2452 0.91246 11.1577 2.03806 11.1577C3.16367 11.1577 4.07617 10.2452 4.07617 9.11955C4.07617 7.99389 3.16367 7.08142 2.03806 7.08142C0.91246 7.08142 -4.45823e-05 7.99389 -4.46315e-05 9.11955Z" fill="#002469"/>
</svg>
