<svg width="17" height="18" viewBox="0 0 17 18" fill="none" xmlns="http://www.w3.org/2000/svg">
<path d="M8.10544 16.2109C3.63756 16.2109 0 12.5733 0 8.10544C0 3.63756 3.63756 0 8.10544 0C12.5733 0 16.2109 3.63756 16.2109 8.10544C16.2109 12.5733 12.5733 16.2109 8.10544 16.2109ZM8.10544 1.18616C4.286 1.18616 1.18616 4.29391 1.18616 8.10544C1.18616 11.917 4.286 15.0247 8.10544 15.0247C11.9249 15.0247 15.0247 11.917 15.0247 8.10544C15.0247 4.29391 11.9249 1.18616 8.10544 1.18616Z" fill="#292D32"/>
<path d="M16.4089 17.0016C16.2586 17.0016 16.1084 16.9462 15.9897 16.8276L14.4082 15.2461C14.1789 15.0167 14.1789 14.6372 14.4082 14.4078C14.6375 14.1785 15.0171 14.1785 15.2464 14.4078L16.828 15.9894C17.0573 16.2187 17.0573 16.5983 16.828 16.8276C16.7094 16.9462 16.5591 17.0016 16.4089 17.0016Z" fill="#292D32"/>
</svg>
