<svg width="12" height="12" viewBox="0 0 12 12" fill="none" xmlns="http://www.w3.org/2000/svg">
<path d="M8.79202 11.4161H2.63654C1.18007 11.4161 0 10.2307 0 8.77426V4.83538C0 4.11244 0.446512 3.20347 1.0206 2.75696L3.88571 0.524403C4.74684 -0.145362 6.12359 -0.177256 7.01661 0.449985L10.3017 2.75165C10.9342 3.19284 11.4286 4.13902 11.4286 4.9098V8.77957C11.4286 10.2307 10.2485 11.4161 8.79202 11.4161ZM4.37475 1.15165L1.50963 3.38421C1.13223 3.68188 0.797342 4.35696 0.797342 4.83538V8.77426C0.797342 9.78954 1.62126 10.6188 2.63654 10.6188H8.79202C9.80731 10.6188 10.6312 9.79486 10.6312 8.77957V4.9098C10.6312 4.39949 10.2644 3.69251 9.84452 3.40547L6.55947 1.10381C5.95349 0.678556 4.95415 0.699819 4.37475 1.15165Z" fill="white"/>
<path d="M5.71434 9.28973C5.4964 9.28973 5.31567 9.109 5.31567 8.89106V7.29638C5.31567 7.07844 5.4964 6.89771 5.71434 6.89771C5.93228 6.89771 6.11302 7.07844 6.11302 7.29638V8.89106C6.11302 9.109 5.93228 9.28973 5.71434 9.28973Z" fill="white"/>
</svg>
